<mxfile host="app.diagrams.net" modified="2023-10-16T08:33:44.225Z" agent="Mozilla/5.0 (Windows NT 10.0; Win64; x64) AppleWebKit/537.36 (KHTML, like Gecko) Chrome/118.0.0.0 Safari/537.36 Edg/118.0.2088.46" etag="0Y-5_nyn6tfcTBMzqaWx" version="22.0.4" type="device">
  <diagram name="第 1 页" id="ZBNqXYuf9FLL-fdRS4LF">
    <mxGraphModel dx="2000" dy="780" grid="1" gridSize="10" guides="1" tooltips="1" connect="1" arrows="1" fold="1" page="1" pageScale="1" pageWidth="827" pageHeight="1169" math="0" shadow="0">
      <root>
        <mxCell id="0" />
        <mxCell id="1" parent="0" />
        <mxCell id="DOMva4OzpYjwq9wjeSiB-1" value="" style="rounded=0;whiteSpace=wrap;html=1;" parent="1" vertex="1">
          <mxGeometry x="-90" y="50" width="840" height="1020" as="geometry" />
        </mxCell>
        <mxCell id="DOMva4OzpYjwq9wjeSiB-2" value="NAV 下拉是選單頁面" style="rounded=0;whiteSpace=wrap;html=1;" parent="1" vertex="1">
          <mxGeometry x="-60" y="80" width="780" height="60" as="geometry" />
        </mxCell>
        <mxCell id="DOMva4OzpYjwq9wjeSiB-3" value="動圖" style="rounded=0;whiteSpace=wrap;html=1;" parent="1" vertex="1">
          <mxGeometry x="-60" y="180" width="780" height="180" as="geometry" />
        </mxCell>
        <mxCell id="DOMva4OzpYjwq9wjeSiB-4" value="訂票查詢表格 (互動式)" style="rounded=0;whiteSpace=wrap;html=1;" parent="1" vertex="1">
          <mxGeometry x="-60" y="420" width="770" height="220" as="geometry" />
        </mxCell>
        <mxCell id="DOMva4OzpYjwq9wjeSiB-5" value="" style="triangle;whiteSpace=wrap;html=1;" parent="1" vertex="1">
          <mxGeometry x="670" y="230" width="50" height="80" as="geometry" />
        </mxCell>
        <mxCell id="DOMva4OzpYjwq9wjeSiB-6" value="" style="triangle;whiteSpace=wrap;html=1;rotation=-180;" parent="1" vertex="1">
          <mxGeometry x="-60" y="230" width="40" height="80" as="geometry" />
        </mxCell>
        <mxCell id="DOMva4OzpYjwq9wjeSiB-8" value="" style="rounded=0;whiteSpace=wrap;html=1;" parent="1" vertex="1">
          <mxGeometry x="-40" y="90" width="120" height="40" as="geometry" />
        </mxCell>
        <mxCell id="DOMva4OzpYjwq9wjeSiB-9" value="" style="rounded=0;whiteSpace=wrap;html=1;" parent="1" vertex="1">
          <mxGeometry x="110" y="90" width="120" height="40" as="geometry" />
        </mxCell>
        <mxCell id="DOMva4OzpYjwq9wjeSiB-12" value="註冊/登入" style="rounded=0;whiteSpace=wrap;html=1;" parent="1" vertex="1">
          <mxGeometry x="580" y="90" width="120" height="30" as="geometry" />
        </mxCell>
        <mxCell id="DOMva4OzpYjwq9wjeSiB-13" value="文字超連結" style="ellipse;whiteSpace=wrap;html=1;" parent="1" vertex="1">
          <mxGeometry y="250" width="120" height="110" as="geometry" />
        </mxCell>
        <mxCell id="DOMva4OzpYjwq9wjeSiB-20" value="" style="group" parent="1" vertex="1" connectable="0">
          <mxGeometry x="-60" y="680" width="790" height="250" as="geometry" />
        </mxCell>
        <mxCell id="DOMva4OzpYjwq9wjeSiB-7" value="旅遊景點介紹&amp;nbsp;" style="rounded=0;whiteSpace=wrap;html=1;movable=1;resizable=1;rotatable=1;deletable=1;editable=1;locked=0;connectable=1;" parent="DOMva4OzpYjwq9wjeSiB-20" vertex="1">
          <mxGeometry width="790" height="250" as="geometry" />
        </mxCell>
        <mxCell id="DOMva4OzpYjwq9wjeSiB-14" value="" style="rounded=0;whiteSpace=wrap;html=1;movable=1;resizable=1;rotatable=1;deletable=1;editable=1;locked=0;connectable=1;" parent="DOMva4OzpYjwq9wjeSiB-20" vertex="1">
          <mxGeometry x="35" y="30" width="120" height="70" as="geometry" />
        </mxCell>
        <mxCell id="DOMva4OzpYjwq9wjeSiB-15" value="" style="rounded=0;whiteSpace=wrap;html=1;movable=1;resizable=1;rotatable=1;deletable=1;editable=1;locked=0;connectable=1;" parent="DOMva4OzpYjwq9wjeSiB-20" vertex="1">
          <mxGeometry x="195" y="30" width="120" height="70" as="geometry" />
        </mxCell>
        <mxCell id="DOMva4OzpYjwq9wjeSiB-16" value="" style="rounded=0;whiteSpace=wrap;html=1;movable=1;resizable=1;rotatable=1;deletable=1;editable=1;locked=0;connectable=1;" parent="DOMva4OzpYjwq9wjeSiB-20" vertex="1">
          <mxGeometry x="345" y="30" width="120" height="70" as="geometry" />
        </mxCell>
        <mxCell id="DOMva4OzpYjwq9wjeSiB-17" value="" style="rounded=0;whiteSpace=wrap;html=1;movable=1;resizable=1;rotatable=1;deletable=1;editable=1;locked=0;connectable=1;" parent="DOMva4OzpYjwq9wjeSiB-20" vertex="1">
          <mxGeometry x="495" y="30" width="120" height="70" as="geometry" />
        </mxCell>
        <mxCell id="DOMva4OzpYjwq9wjeSiB-18" value="" style="rounded=0;whiteSpace=wrap;html=1;movable=1;resizable=1;rotatable=1;deletable=1;editable=1;locked=0;connectable=1;" parent="DOMva4OzpYjwq9wjeSiB-20" vertex="1">
          <mxGeometry x="645" y="30" width="120" height="70" as="geometry" />
        </mxCell>
        <mxCell id="DOMva4OzpYjwq9wjeSiB-19" value="" style="rounded=0;whiteSpace=wrap;html=1;movable=1;resizable=1;rotatable=1;deletable=1;editable=1;locked=0;connectable=1;" parent="DOMva4OzpYjwq9wjeSiB-20" vertex="1">
          <mxGeometry x="35" y="130" width="120" height="70" as="geometry" />
        </mxCell>
        <mxCell id="DOMva4OzpYjwq9wjeSiB-21" value="切換表格選單" style="rounded=0;whiteSpace=wrap;html=1;" parent="1" vertex="1">
          <mxGeometry x="-45" y="480" width="415" height="130" as="geometry" />
        </mxCell>
        <mxCell id="DOMva4OzpYjwq9wjeSiB-22" value="" style="rounded=0;whiteSpace=wrap;html=1;" parent="1" vertex="1">
          <mxGeometry x="-40" y="430" width="120" height="40" as="geometry" />
        </mxCell>
        <mxCell id="DOMva4OzpYjwq9wjeSiB-23" value="" style="rounded=0;whiteSpace=wrap;html=1;" parent="1" vertex="1">
          <mxGeometry x="100" y="430" width="120" height="40" as="geometry" />
        </mxCell>
        <mxCell id="DOMva4OzpYjwq9wjeSiB-24" value="" style="rounded=0;whiteSpace=wrap;html=1;" parent="1" vertex="1">
          <mxGeometry x="250" y="430" width="120" height="40" as="geometry" />
        </mxCell>
      </root>
    </mxGraphModel>
  </diagram>
</mxfile>
